<?xml version="1.0" encoding="utf-8"?>
<svg version="1.1" id="Layer_1" xmlns="http://www.w3.org/2000/svg" xmlns:xlink="http://www.w3.org/1999/xlink" x="0px" y="0px"
     viewBox="0 0 2000 2000" style="enable-background:new 0 0 2000 2000;" xml:space="preserve">
<path class="tofill" d="M704.8,582.3c-89.7,0.8-179.2,0.7-268.7,0.9c-35.7,0.1-63.6,14.8-82.2,45.9c-6.9,11.6-11,24.2-11.3,37.8
    c-0.4,16.5-1.3,32.9-1.3,49.4c-0.1,329.5-0.1,659,0,988.4c0,14.2,0.7,28.6,6.4,42c14.7,34.8,40.3,55.3,78.8,58
    c11.4,0.8,22.8,1.3,34.1,1.3c367.6,0.1,735.1,0.1,1102.7-0.1c11,0,22.2-1.1,32.9-3.5c37.3-8.3,66.6-42.5,68.3-82.6
    c0.3-7,0.6-13.9,0.6-20.9c0-338.7,0-677.4,0-1016.1c0-15.3-1.2-30.4-7.7-44.6c-14.7-32-39.7-50-74.6-54.4c-5-0.6-10.1-0.6-15.2-0.6
    c-88.2,0-176.5,0-265.6,0c-0.9-18.6-0.9-37.3-0.9-56.6c2.2-0.2,4.6-0.5,7-0.5c92.6,0,185.1,0,277.7,0c3.5,0,7,0.2,11.9,0.9
    c55.9,10.8,94,41.5,115,92.8c4,9.8,6.2,20.3,9.2,30.5c0.1,7.6,0.4,15.2,0.4,22.8c0,348.5,0,697,0,1045.5c0,6.3-0.3,12.7-1,20.4
    c-10.5,54.2-40.5,91-89.2,113.1c-12.8,5.8-26.4,7.8-39.9,10.8c-2.9,0.1-5.7,0.3-8.6,0.3c-388.9,0-777.7,0-1168-0.6
    c-5.2-1-9-1.2-12.8-1.9c-57.3-11.1-104.1-56.8-115.6-114c-1-4.9-2-9.8-3-14.6c0-2.5-0.1-5.1-0.1-7.6c0-353.6,0-707.3,0-1060.9
    c0-1.9,0-3.8,0.7-7.1c1-4.9,1-8.4,1.8-11.8c11.7-52.2,42-88.9,91.7-109.1c9.5-3.9,19.8-6,29.7-9c7.3-0.2,14.6-0.5,21.8-0.5
    c88.1,0,176.1,0,264.2,0c3.4,0,6.8,0,11,0C705,544.8,705,563.1,704.8,582.3z"/>
<path class="tofill" d="M784.7,1153.7c-9.5-9.7-18.9-19.3-28.9-29.5c6.6-6.6,12.9-12.9,19.3-19.7c2.8-2.8,5.5-5,9-8
    c36,35.9,72,71.8,108.8,108.6c30.5,30.5,60.2,60.2,91.6,91.5c0-5.6,0-8.6,0-11.7c0-157.4,0-314.8,0-472.2c0-2.8-0.2-5.7-0.3-8.5
    c0.1-3.5,0.3-7,0.3-10.5c0-151.1,0-302.2,0-453.3c0-3.7,0-7.5,0-11.6c12.8,0,24.8,0,38.1,0c0,157.9,0,315.9,0.2,474.7
    c0.1,3.4-0.1,5.9-0.1,8.5c0,157.8,0,315.5,0,473.3c0,2.8,0,5.7,0,8.4c0.7,0.3,0.9,0.5,1.2,0.5c0.3,0,0.7,0.1,0.8-0.1
    c65.7-65.4,131.3-130.8,197-196.2c0.2-0.2,0.6-0.2-0.3,0.1c9.3,9.2,18.2,18.1,27.7,27.6c-0.7,0.8-2.4,2.9-4.3,4.9
    c-78.1,78.1-156.2,156.2-234.3,234.3c-7.2,7.2-7.3,7.2-14.3,0.1c-28.8-28.7-57.5-57.4-87.2-86.9c-12.7-12.7-24.4-24.7-36.2-36.5
    C843.5,1212.2,814.1,1183,784.7,1153.7z"/>
<path class="tofill" d="M1430,1680.2c-4.9-20.4,4.5-35.4,23.6-38.3c19.1-2.9,31.1,12.1,32.3,24.6c1.6,17-9.7,31.6-25.7,32.8
    C1446.2,1700.3,1436.5,1694.4,1430,1680.2z"/>
<path class="tofill" d="M1521.5,1460.6c15.4-6.8,28.3-4.6,37.4,6.1c7.3,8.4,8.8,21.7,3.6,31.9c-5.5,10.9-16.4,17.1-28.7,15.8
    c-12.1-1.3-21.1-7.8-24.4-19.4C1506.1,1484.1,1506.8,1469.8,1521.5,1460.6z"/>
<path class="tofill" d="M1565.4,1367.1c2.6,19.6-13.4,34-30,33.1c-13.4-0.7-25.8-11.2-27.1-23.6c-1.8-17.4,6-29.8,21-33.5
    C1546.4,1338.9,1559.7,1347.5,1565.4,1367.1z"/>
<path class="tofill" d="M1537.1,1227.5c8.8,1.3,16,3.9,21.6,10.3c7.3,8.5,9.1,21.8,4,32c-5.5,11-16.3,17.1-28.8,16.1
    c-11-0.9-22-8.8-24.7-19.4c-4-16.1,0.8-33.2,21.5-37.8C1532.6,1228.2,1534.5,1227.8,1537.1,1227.5z"/>
<path class="tofill" d="M1522.8,1117c8.4-4.2,16.4-4.6,24.5-1.6c12.5,4.6,19.9,17.8,18.1,32.3c-1.5,12-13.3,22.9-26,24
    c-13.5,1.1-27.1-7-30.2-19.7C1506.3,1140,1506.9,1126.4,1522.8,1117z"/>
<path class="tofill" d="M1508.3,1025.6c1-19.3,18.7-27.8,30.8-26.5c17.8,1.9,28.6,16.4,26.3,34.2c-1.8,14.2-16.4,25.3-31.7,23.9
    C1518.7,1055.9,1505.8,1042.2,1508.3,1025.6z"/>
<path class="tofill" d="M1564.3,905.5c6.1,22.8-12,39.1-29.9,37.6c-12.9-1-24.8-11.7-26-23.7c-1.7-17,5.8-29.4,20.2-33.3
    C1544.2,881.9,1557.5,888.8,1564.3,905.5z"/>
<path class="tofill" d="M1526.5,827c-23.4-8.6-23.3-40.8-6.3-51.4c11.6-7.2,26-6.6,36,2.5c10,9,12.5,23.9,6,35.6
    C1555.3,826.1,1542,831.3,1526.5,827z"/>
<path class="tofill" d="M1438.6,718.8c1.4-8.7,4.1-15.9,10.5-21.3c9.1-7.8,20.6-9.4,31.7-4c11.3,5.5,17.3,16.6,16.1,29.6
    c-1.1,11.1-9.2,20.4-19.9,24.1c-17.3,6-35.9-7.5-37.3-22.1C1439.5,723.2,1438.9,721.4,1438.6,718.8z"/>
<path class="tofill" d="M1142,1661.4c2.7,12.3,0.8,22.7-8.5,31c-8.8,7.9-23.3,9.5-33.6,3.4c-11.7-6.9-17.6-20.8-13.6-33.5
    c3.8-12.2,15.4-20.9,26.7-20.4C1127.7,1642.4,1135.7,1647,1142,1661.4z"/>
<path class="tofill" d="M1199.9,1674.2c-0.8-10.2,1.9-18.2,8.9-24.8c8.3-7.8,22.6-10.1,32.7-5.2c10.9,5.3,16.8,15.9,16,28.8
    c-0.7,11.6-8.5,21.8-19.9,25.1C1217.8,1703.8,1201.8,1690.6,1199.9,1674.2z"/>
<path class="tofill" d="M1024.1,1687c-7.4,9.7-16.6,13.3-27.9,12.2c-14.9-1.5-25.5-14.7-25.2-30.5c0.3-14,14.7-26.2,26.9-27.1
    C1022,1639.8,1037.3,1666.6,1024.1,1687z"/>
<path class="tofill" d="M1319.6,1688.2c-9.3-17.4-6.7-32,6.9-41.8c8.4-6,24-6.2,32.4-0.4c10.9,7.6,15.7,21.3,11.8,33.5
    c-3.7,11.5-14.4,19.2-26.3,19.8C1334.4,1699.8,1326.5,1696,1319.6,1688.2z"/>
<path class="tofill" d="M857.3,1664.5c6.3-17.2,13.9-22.5,30.4-22.5c12.1,0,19.8,6.5,24.4,16.5c4.9,10.5,3.7,21-3.7,30.3
    c-9.2,11.5-22,12.7-33.4,8.7c-9-3.2-18.7-12.9-18.1-27.4C856.9,1668.5,857.1,1666.9,857.3,1664.5z"/>
<path class="tofill" d="M746.3,1656c10.1-15.1,21.1-16.5,35.2-12.7c18.4,4.9,25,30.7,12.7,45.4c-9.6,11.5-25.4,14.3-37.6,6.9
    C742.4,1687,738.8,1669,746.3,1656z"/>
<path class="tofill" d="M673.6,1646.3c12.7,12.3,15.8,24.5,9.7,37c-5.8,12-19,18.3-32.6,15.7c-11-2.1-21-13-22.3-24.4
    c-1.6-13.6,5.1-26.5,17.1-30.8C654.7,1640.6,664.3,1640.4,673.6,1646.3z"/>
<path class="tofill" d="M442,1372.5c-0.2-3.6-0.4-6.5-0.4-9.3c0.2-15,10.8-26.3,25.8-27.5c15.1-1.3,28.7,8.9,31.2,23.3
    c2.2,12.7-3.2,24.6-14,30.8c-10.3,6-24.6,5.1-33.7-3.2C447.2,1383.1,445,1377.8,442,1372.5z"/>
<path class="tofill" d="M569.6,1658.3c6.9,20.3-4.8,36.1-20.3,39.9c-11.4,2.8-27.7-4.2-33-16.4c-5.7-13.1-1.2-28.8,10.4-36.1
    C542.3,1635.9,560,1640.8,569.6,1658.3z"/>
<path class="tofill" d="M456.5,1504.7c-19.3-9.3-18.4-37.6-6.2-47.5c8.9-7.3,21.7-9.9,32-4.8c11.3,5.5,17,14.7,16.5,27.5
    c-0.5,12.3-6.2,21.2-17.6,25.7C473.3,1508.8,465.1,1508.5,456.5,1504.7z"/>
<path class="tofill" d="M492.1,1269.6c-11,12.4-31.1,11.6-41.2,3c-10.6-9-11.8-24.5-6.9-35.8c4.9-11.3,19-17.6,32-15.1
    c12.5,2.5,21.9,13.3,22.7,25.9C499.3,1255.6,497.3,1262.7,492.1,1269.6z"/>
<path class="tofill" d="M494.6,1151.8c-11.7,18.4-41.2,16.8-50.3-2c-5-10.3-3.6-24.8,3.8-33c8.2-9.1,20.5-12.2,32.1-8.1
    c11.5,4.1,18.9,14.3,18.4,27C498.4,1140.9,496.2,1146,494.6,1151.8z"/>
<path class="tofill" d="M498.7,1026.2c-5.3,17.5-13.7,23.5-29.1,24.3c-14.2,0.7-28.6-12.8-28.5-29c0.1-16.3,15-31.6,33.7-28.4
    c13.5,2.3,23.3,13,23.9,26.7C498.8,1021.6,498.8,1023.5,498.7,1026.2z"/>
<path class="tofill" d="M443.3,896.1c7.7-18.4,30.6-23,45.1-11.5c9.1,7.2,13,20.3,9.3,31.7c-4,12.2-13.5,19.4-26.1,19.6
    C449.1,936.5,437.3,920.1,443.3,896.1z"/>
<path class="tofill" d="M1564.1,1597c2.4,16.8-11.2,29-22.8,31.2c-15,2.8-30.6-6.7-34.1-21.7c-3.6-15.2,5.8-30.5,20.5-34.8
    C1545.3,1566.6,1564.4,1580.3,1564.1,1597z"/>
<path class="st2" d="M443,1583.4c4-15,23.7-22.3,35.8-18.1c14.2,4.9,22.7,18.3,20,33.4c-2.6,14.9-15.5,24.1-32.1,23
    c-13.8-0.9-24.9-12.9-25.1-27.3C441.6,1591,442.3,1587.6,443,1583.4z"/>
<path class="st3" d="M460.9,820.6c-17.6-6.4-22.8-24.8-17.4-38.4c5.7-14.3,22.1-21.5,36.9-16.3c13.5,4.8,21.1,18,18.7,32.4
    c-2.3,13.7-13.8,23.4-28,23.4C467.9,821.7,464.7,821.2,460.9,820.6z"/>
<path class="tofill" d="M666.9,746.9c-27.5-1.8-33.5-31.4-22-46.4c6.8-8.9,19.6-13.4,31.5-10.2c10.5,2.8,19.2,13.1,20.5,23.8
    C699,732.7,685.2,747.7,666.9,746.9z"/>
<path class="tofill" d="M1327.5,705.9c7.6-18,31-20.2,43.3-11.6c10.4,7.3,15.1,22.5,10,34.6c-5.6,13.3-19.1,20.5-33.1,17.7
    c-13-2.7-22.2-13.6-22.1-27C1325.5,715.3,1326.6,711,1327.5,705.9z"/>
<path class="tofill" d="M520.2,717.4c1.4-8.7,4.1-15.9,10.5-21.3c9.1-7.8,20.6-9.4,31.7-4c11.3,5.5,17.3,16.6,16.1,29.6
    c-1.1,11.1-9.2,20.4-19.9,24.1c-17.3,6-35.9-7.5-37.3-22.1C521.1,721.8,520.5,720,520.2,717.4z"/>
</svg>
